<?xml version="1.0" encoding="iso-8859-1"?>
<!-- Generator: Adobe Illustrator 16.0.0, SVG Export Plug-In . SVG Version: 6.00 Build 0)  -->
<!DOCTYPE svg PUBLIC "-//W3C//DTD SVG 1.1//EN" "http://www.w3.org/Graphics/SVG/1.1/DTD/svg11.dtd">
<svg version="1.1" id="Capa_1" xmlns="http://www.w3.org/2000/svg" xmlns:xlink="http://www.w3.org/1999/xlink" x="0px" y="0px"
	 width="417.5px" height="417.499px" viewBox="0 0 417.5 417.499" style="enable-background:new 0 0 417.5 417.499;"
	 xml:space="preserve">
<g>
	<path d="M384.691,32.812c-43.75-43.75-114.656-43.75-158.406,0c-35.859,35.875-72.672,120.375-60.656,173.813L0.019,372.249v45.25
		h45.25v-45.25h45.25v-45.312h45.266l75.109-75.063c53.391,12,137.922-24.812,173.797-60.688
		C428.41,147.438,428.41,76.5,384.691,32.812z M322.441,95c-24.969-24.938-37.625-52.813-28.281-62.188
		c9.375-9.375,37.25,3.313,62.25,28.25c24.969,25,37.625,52.875,28.281,62.25C375.316,132.688,347.441,120,322.441,95z"/>
</g>
<g>
</g>
<g>
</g>
<g>
</g>
<g>
</g>
<g>
</g>
<g>
</g>
<g>
</g>
<g>
</g>
<g>
</g>
<g>
</g>
<g>
</g>
<g>
</g>
<g>
</g>
<g>
</g>
<g>
</g>
</svg>
